<mxfile host="app.diagrams.net" modified="2023-11-24T15:43:51.548Z" agent="Mozilla/5.0 (Windows NT 10.0; Win64; x64; rv:120.0) Gecko/20100101 Firefox/120.0" etag="0eD31cWfc4m02noxSQk-" version="22.1.3" type="device">
  <diagram id="C5RBs43oDa-KdzZeNtuy" name="Page-1">
    <mxGraphModel dx="1728" dy="952" grid="1" gridSize="10" guides="1" tooltips="1" connect="1" arrows="1" fold="1" page="1" pageScale="1" pageWidth="827" pageHeight="1169" math="0" shadow="0">
      <root>
        <mxCell id="WIyWlLk6GJQsqaUBKTNV-0" />
        <mxCell id="WIyWlLk6GJQsqaUBKTNV-1" parent="WIyWlLk6GJQsqaUBKTNV-0" />
        <mxCell id="hqWV7ruok8uzU3hxx1ol-54" value="" style="edgeStyle=orthogonalEdgeStyle;rounded=0;orthogonalLoop=1;jettySize=auto;html=1;" edge="1" parent="WIyWlLk6GJQsqaUBKTNV-1" source="hqWV7ruok8uzU3hxx1ol-55">
          <mxGeometry relative="1" as="geometry">
            <mxPoint x="158.83333333333326" y="150" as="targetPoint" />
          </mxGeometry>
        </mxCell>
        <mxCell id="hqWV7ruok8uzU3hxx1ol-55" value="Salary.java&lt;br&gt;applyIncomeTax" style="strokeWidth=2;html=1;shape=mxgraph.flowchart.start_1;whiteSpace=wrap;" vertex="1" parent="WIyWlLk6GJQsqaUBKTNV-1">
          <mxGeometry x="104.38" y="40" width="108.75" height="60" as="geometry" />
        </mxCell>
        <mxCell id="hqWV7ruok8uzU3hxx1ol-56" value="Has arguments:&lt;br&gt; rateO&lt;br&gt;yearlySalary" style="strokeWidth=2;html=1;shape=mxgraph.flowchart.annotation_2;align=left;labelPosition=right;pointerEvents=1;" vertex="1" parent="WIyWlLk6GJQsqaUBKTNV-1">
          <mxGeometry x="230" y="40" width="50" height="60" as="geometry" />
        </mxCell>
        <mxCell id="hqWV7ruok8uzU3hxx1ol-57" value="End" style="strokeWidth=2;html=1;shape=mxgraph.flowchart.terminator;whiteSpace=wrap;" vertex="1" parent="WIyWlLk6GJQsqaUBKTNV-1">
          <mxGeometry x="108.76000000000002" y="510" width="100" height="60" as="geometry" />
        </mxCell>
        <mxCell id="hqWV7ruok8uzU3hxx1ol-63" value="" style="edgeStyle=orthogonalEdgeStyle;rounded=0;orthogonalLoop=1;jettySize=auto;html=1;" edge="1" parent="WIyWlLk6GJQsqaUBKTNV-1" source="hqWV7ruok8uzU3hxx1ol-64">
          <mxGeometry relative="1" as="geometry">
            <mxPoint x="158.80000000000018" y="330" as="targetPoint" />
          </mxGeometry>
        </mxCell>
        <mxCell id="hqWV7ruok8uzU3hxx1ol-129" value="" style="edgeStyle=orthogonalEdgeStyle;rounded=0;orthogonalLoop=1;jettySize=auto;html=1;" edge="1" parent="WIyWlLk6GJQsqaUBKTNV-1" source="hqWV7ruok8uzU3hxx1ol-122" target="hqWV7ruok8uzU3hxx1ol-128">
          <mxGeometry relative="1" as="geometry" />
        </mxCell>
        <mxCell id="hqWV7ruok8uzU3hxx1ol-122" value="Set totalIncomeTax =&lt;br&gt;applyPaymentBands(grossSalary, incomeTaxBands)" style="shape=process;whiteSpace=wrap;html=1;backgroundOutline=1;" vertex="1" parent="WIyWlLk6GJQsqaUBKTNV-1">
          <mxGeometry x="33.22" y="237.5" width="251.06" height="65" as="geometry" />
        </mxCell>
        <mxCell id="hqWV7ruok8uzU3hxx1ol-127" value="" style="edgeStyle=orthogonalEdgeStyle;rounded=0;orthogonalLoop=1;jettySize=auto;html=1;" edge="1" parent="WIyWlLk6GJQsqaUBKTNV-1" source="hqWV7ruok8uzU3hxx1ol-126" target="hqWV7ruok8uzU3hxx1ol-122">
          <mxGeometry relative="1" as="geometry" />
        </mxCell>
        <mxCell id="hqWV7ruok8uzU3hxx1ol-126" value="Set incomeTaxBands = rateIO.incomeTax" style="shape=process;whiteSpace=wrap;html=1;backgroundOutline=1;" vertex="1" parent="WIyWlLk6GJQsqaUBKTNV-1">
          <mxGeometry x="63.22" y="150" width="191.06" height="60" as="geometry" />
        </mxCell>
        <mxCell id="hqWV7ruok8uzU3hxx1ol-131" value="" style="edgeStyle=orthogonalEdgeStyle;rounded=0;orthogonalLoop=1;jettySize=auto;html=1;" edge="1" parent="WIyWlLk6GJQsqaUBKTNV-1" source="hqWV7ruok8uzU3hxx1ol-128" target="hqWV7ruok8uzU3hxx1ol-130">
          <mxGeometry relative="1" as="geometry" />
        </mxCell>
        <mxCell id="hqWV7ruok8uzU3hxx1ol-128" value="Set totalDeductions = totalDeductions + totalIncomeTax" style="whiteSpace=wrap;html=1;strokeWidth=2;rounded=1;arcSize=12;" vertex="1" parent="WIyWlLk6GJQsqaUBKTNV-1">
          <mxGeometry x="58.74999999999999" y="330" width="200" height="60" as="geometry" />
        </mxCell>
        <mxCell id="hqWV7ruok8uzU3hxx1ol-132" value="" style="edgeStyle=orthogonalEdgeStyle;rounded=0;orthogonalLoop=1;jettySize=auto;html=1;" edge="1" parent="WIyWlLk6GJQsqaUBKTNV-1" source="hqWV7ruok8uzU3hxx1ol-130" target="hqWV7ruok8uzU3hxx1ol-57">
          <mxGeometry relative="1" as="geometry" />
        </mxCell>
        <mxCell id="hqWV7ruok8uzU3hxx1ol-130" value="Set netSalary = netSalary - totalIncomeTax" style="whiteSpace=wrap;html=1;strokeWidth=2;rounded=1;arcSize=12;" vertex="1" parent="WIyWlLk6GJQsqaUBKTNV-1">
          <mxGeometry x="58.76" y="420" width="200" height="60" as="geometry" />
        </mxCell>
        <mxCell id="hqWV7ruok8uzU3hxx1ol-133" value="" style="edgeStyle=orthogonalEdgeStyle;rounded=0;orthogonalLoop=1;jettySize=auto;html=1;" edge="1" parent="WIyWlLk6GJQsqaUBKTNV-1" source="hqWV7ruok8uzU3hxx1ol-134">
          <mxGeometry relative="1" as="geometry">
            <mxPoint x="485.61333333333323" y="150" as="targetPoint" />
          </mxGeometry>
        </mxCell>
        <mxCell id="hqWV7ruok8uzU3hxx1ol-134" value="Salary.java&lt;br&gt;applyNational Insurnace" style="strokeWidth=2;html=1;shape=mxgraph.flowchart.start_1;whiteSpace=wrap;" vertex="1" parent="WIyWlLk6GJQsqaUBKTNV-1">
          <mxGeometry x="431.15999999999997" y="40" width="108.75" height="60" as="geometry" />
        </mxCell>
        <mxCell id="hqWV7ruok8uzU3hxx1ol-135" value="Has arguments:&lt;br&gt; rateO&lt;br&gt;yearlySalary" style="strokeWidth=2;html=1;shape=mxgraph.flowchart.annotation_2;align=left;labelPosition=right;pointerEvents=1;" vertex="1" parent="WIyWlLk6GJQsqaUBKTNV-1">
          <mxGeometry x="556.78" y="40" width="50" height="60" as="geometry" />
        </mxCell>
        <mxCell id="hqWV7ruok8uzU3hxx1ol-136" value="End" style="strokeWidth=2;html=1;shape=mxgraph.flowchart.terminator;whiteSpace=wrap;" vertex="1" parent="WIyWlLk6GJQsqaUBKTNV-1">
          <mxGeometry x="435.53999999999996" y="510" width="100" height="60" as="geometry" />
        </mxCell>
        <mxCell id="hqWV7ruok8uzU3hxx1ol-137" value="" style="edgeStyle=orthogonalEdgeStyle;rounded=0;orthogonalLoop=1;jettySize=auto;html=1;" edge="1" parent="WIyWlLk6GJQsqaUBKTNV-1" source="hqWV7ruok8uzU3hxx1ol-138" target="hqWV7ruok8uzU3hxx1ol-142">
          <mxGeometry relative="1" as="geometry" />
        </mxCell>
        <mxCell id="hqWV7ruok8uzU3hxx1ol-138" value="Set totalNI =&lt;br&gt;applyPaymentBands(grossSalary, NIBands)" style="shape=process;whiteSpace=wrap;html=1;backgroundOutline=1;" vertex="1" parent="WIyWlLk6GJQsqaUBKTNV-1">
          <mxGeometry x="360" y="237.5" width="251.06" height="65" as="geometry" />
        </mxCell>
        <mxCell id="hqWV7ruok8uzU3hxx1ol-139" value="" style="edgeStyle=orthogonalEdgeStyle;rounded=0;orthogonalLoop=1;jettySize=auto;html=1;" edge="1" parent="WIyWlLk6GJQsqaUBKTNV-1" source="hqWV7ruok8uzU3hxx1ol-140" target="hqWV7ruok8uzU3hxx1ol-138">
          <mxGeometry relative="1" as="geometry" />
        </mxCell>
        <mxCell id="hqWV7ruok8uzU3hxx1ol-140" value="Set NIBands = rateIO.nationalInsurance" style="shape=process;whiteSpace=wrap;html=1;backgroundOutline=1;" vertex="1" parent="WIyWlLk6GJQsqaUBKTNV-1">
          <mxGeometry x="390" y="150" width="191.06" height="60" as="geometry" />
        </mxCell>
        <mxCell id="hqWV7ruok8uzU3hxx1ol-141" value="" style="edgeStyle=orthogonalEdgeStyle;rounded=0;orthogonalLoop=1;jettySize=auto;html=1;" edge="1" parent="WIyWlLk6GJQsqaUBKTNV-1" source="hqWV7ruok8uzU3hxx1ol-142" target="hqWV7ruok8uzU3hxx1ol-144">
          <mxGeometry relative="1" as="geometry" />
        </mxCell>
        <mxCell id="hqWV7ruok8uzU3hxx1ol-142" value="Set totalDeductions = totalDeductions + totalNI" style="whiteSpace=wrap;html=1;strokeWidth=2;rounded=1;arcSize=12;" vertex="1" parent="WIyWlLk6GJQsqaUBKTNV-1">
          <mxGeometry x="385.53000000000003" y="330" width="200" height="60" as="geometry" />
        </mxCell>
        <mxCell id="hqWV7ruok8uzU3hxx1ol-143" value="" style="edgeStyle=orthogonalEdgeStyle;rounded=0;orthogonalLoop=1;jettySize=auto;html=1;" edge="1" parent="WIyWlLk6GJQsqaUBKTNV-1" source="hqWV7ruok8uzU3hxx1ol-144" target="hqWV7ruok8uzU3hxx1ol-136">
          <mxGeometry relative="1" as="geometry" />
        </mxCell>
        <mxCell id="hqWV7ruok8uzU3hxx1ol-144" value="Set netSalary = netSalary - totalNI" style="whiteSpace=wrap;html=1;strokeWidth=2;rounded=1;arcSize=12;" vertex="1" parent="WIyWlLk6GJQsqaUBKTNV-1">
          <mxGeometry x="385.525" y="420" width="200" height="60" as="geometry" />
        </mxCell>
      </root>
    </mxGraphModel>
  </diagram>
</mxfile>
